<svg width="14" height="17" viewBox="0 0 14 17" fill="none" xmlns="http://www.w3.org/2000/svg">
<path d="M9.625 0H1.75C0.7875 0 0 0.765 0 1.7V15.3C0 16.235 0.7875 17 1.75 17H12.25C13.2125 17 14 16.235 14 15.3V4.25L9.625 0ZM1.75 15.3V1.7H8.75V5.1H12.25V15.3H1.75ZM10.5 6.8V11.05C10.5 12.9285 8.93375 14.45 7 14.45C5.06625 14.45 3.5 12.9285 3.5 11.05V5.525C3.5 4.2755 4.6025 3.281 5.915 3.4085C7.0525 3.519 7.875 4.5305 7.875 5.644V11.05H6.125V5.525C6.125 5.287 5.9325 5.1 5.6875 5.1C5.4425 5.1 5.25 5.287 5.25 5.525V11.05C5.25 11.985 6.0375 12.75 7 12.75C7.9625 12.75 8.75 11.985 8.75 11.05V6.8H10.5Z" fill="black"/>
</svg>
