<svg width="20" height="5" viewBox="0 0 20 5" fill="none" xmlns="http://www.w3.org/2000/svg">
<path d="M17.5 5C16.9833 5 16.5167 4.85833 16.1 4.575C15.6833 4.29167 15.3833 3.93333 15.2 3.5H1C0.716667 3.5 0.479333 3.404 0.288 3.212C0.0960001 3.02067 0 2.78333 0 2.5C0 2.21667 0.0960001 1.979 0.288 1.787C0.479333 1.59567 0.716667 1.5 1 1.5H15.2C15.3833 1.06667 15.6833 0.708334 16.1 0.425C16.5167 0.141667 16.9833 0 17.5 0C18.2 0 18.7917 0.241667 19.275 0.725C19.7583 1.20833 20 1.8 20 2.5C20 3.2 19.7583 3.79167 19.275 4.275C18.7917 4.75833 18.2 5 17.5 5Z" fill="black"/>
</svg>
