<svg width="22" height="12" viewBox="0 0 22 12" fill="none" xmlns="http://www.w3.org/2000/svg">
<path d="M2 12C1.45 12 0.979333 11.8043 0.588 11.413C0.196 11.021 0 10.55 0 10C0 9.45 0.196 8.979 0.588 8.587C0.979333 8.19567 1.45 8 2 8H2.263C2.33767 8 2.41667 8.01667 2.5 8.05L7.05 3.5C7.01667 3.41667 7 3.33733 7 3.262V3C7 2.45 7.196 1.979 7.588 1.587C7.97933 1.19567 8.45 1 9 1C9.55 1 10.021 1.19567 10.413 1.587C10.8043 1.979 11 2.45 11 3C11 3.03333 10.9833 3.2 10.95 3.5L13.5 6.05C13.5833 6.01667 13.6627 6 13.738 6H14.262C14.3373 6 14.4167 6.01667 14.5 6.05L18.05 2.5C18.0167 2.41667 18 2.33733 18 2.262V2C18 1.45 18.1957 0.979333 18.587 0.588C18.979 0.196 19.45 0 20 0C20.55 0 21.021 0.196 21.413 0.588C21.8043 0.979333 22 1.45 22 2C22 2.55 21.8043 3.02067 21.413 3.412C21.021 3.804 20.55 4 20 4H19.738C19.6627 4 19.5833 3.98333 19.5 3.95L15.95 7.5C15.9833 7.58333 16 7.66267 16 7.738V8C16 8.55 15.8043 9.02067 15.413 9.412C15.021 9.804 14.55 10 14 10C13.45 10 12.9793 9.804 12.588 9.412C12.196 9.02067 12 8.55 12 8V7.738C12 7.66267 12.0167 7.58333 12.05 7.5L9.5 4.95C9.41667 4.98333 9.33733 5 9.262 5H9C8.96667 5 8.8 4.98333 8.5 4.95L3.95 9.5C3.98333 9.58333 4 9.66267 4 9.738V10C4 10.55 3.804 11.021 3.412 11.413C3.02067 11.8043 2.55 12 2 12Z" fill="black"/>
</svg>
